#N canvas 65 82 650 686 10;
#X declare -path bin/;
#X declare -path bin/;
#X declare -path bin/;
#X declare -path bin/;
#N canvas 65 82 1301 686 mixer 0;
#X obj 100 102 c_stchannel slicer1;
#X obj 189 102 c_stchannel slicer2;
#X obj 277 102 c_stchannel slicer3;
#X obj 364 102 c_stchannel slicer4;
#X obj 101 51 catch~ slicer1-L;
#X obj 116 71 catch~ slicer1-R;
#X obj 221 52 catch~ slicer2-L;
#X obj 236 72 catch~ slicer2-R;
#X obj 345 49 catch~ slicer3-L;
#X obj 360 69 catch~ slicer3-R;
#X obj 465 50 catch~ slicer4-L;
#X obj 480 70 catch~ slicer4-R;
#X obj -159 313 dac~ 1 2;
#X obj 444 101 c_stchannel delay;
#X obj 101 315 c_tobus delay;
#X obj 101 351 c_tobus reverb;
#X obj 190 315 c_tobus delay;
#X obj 189 351 c_tobus reverb;
#X obj 278 315 c_tobus delay;
#X obj 277 351 c_tobus reverb;
#X obj 365 315 c_tobus delay;
#X obj 365 351 c_tobus reverb;
#X obj 492 102 c_stchannel reverb;
#X obj 492 78 rev3~ 90 90;
#X obj 444 -33 e_del;
#X obj 484 -32 e_del;
#N canvas 1279 87 449 300 controls 0;
#X obj 45 143 outlet;
#X msg 45 73 dry 1;
#X msg 94 73 feedback \$1;
#X msg 273 75 bpm \$1;
#X msg 198 74 deltime \$1;
#X obj 45 9 loadbang;
#X obj 101 8 r fb;
#X obj 201 21 r del-time;
#X obj 333 38 unpack;
#X obj 333 15 r groove/BPM;
#X connect 1 0 0 0;
#X connect 2 0 0 0;
#X connect 3 0 0 0;
#X connect 4 0 0 0;
#X connect 5 0 1 0;
#X connect 6 0 2 0;
#X connect 7 0 4 0;
#X connect 8 1 3 0;
#X connect 9 0 8 0;
#X restore 721 -64 pd controls;
#X obj 443 -111 catch~ L-delay;
#X obj 459 -81 catch~ R-delay;
#X obj 491 39 catch~ L-reverb;
#X obj 504 58 catch~ R-reverb;
#X connect 0 0 12 0;
#X connect 0 0 14 0;
#X connect 0 0 15 0;
#X connect 0 1 12 1;
#X connect 0 1 14 1;
#X connect 0 1 15 1;
#X connect 1 0 12 0;
#X connect 1 0 16 0;
#X connect 1 0 17 0;
#X connect 1 1 12 1;
#X connect 1 1 16 1;
#X connect 1 1 17 1;
#X connect 2 0 12 0;
#X connect 2 0 18 0;
#X connect 2 0 19 0;
#X connect 2 1 12 1;
#X connect 2 1 18 1;
#X connect 2 1 19 1;
#X connect 3 0 12 0;
#X connect 3 0 20 0;
#X connect 3 0 21 0;
#X connect 3 1 12 1;
#X connect 3 1 20 1;
#X connect 3 1 21 1;
#X connect 4 0 0 0;
#X connect 5 0 0 1;
#X connect 6 0 1 0;
#X connect 7 0 1 1;
#X connect 8 0 2 0;
#X connect 9 0 2 1;
#X connect 10 0 3 0;
#X connect 11 0 3 1;
#X connect 13 0 12 0;
#X connect 13 1 12 1;
#X connect 22 0 12 0;
#X connect 22 1 12 1;
#X connect 23 0 22 0;
#X connect 23 1 22 1;
#X connect 24 0 13 0;
#X connect 25 0 13 1;
#X connect 26 0 24 2;
#X connect 26 0 25 2;
#X connect 27 0 24 0;
#X connect 28 0 25 0;
#X connect 29 0 23 0;
#X connect 30 0 23 1;
#X coords 0 -1 1 1 430 290 1 100 100;
#X restore -799 66 pd mixer;
#N canvas 65 87 1301 686 slicer 0;
#X obj 102 102 slicer 0;
#X obj 308 101 slicer 1 1;
#X obj 721 101 slicer 3 6;
#X obj 515 101 slicer 2 3;
#X obj 103 66 r~ input1;
#X obj 309 67 r~ input1;
#X obj 516 64 r~ input1;
#X obj 722 64 r~ input1;
#X obj 101 283 throw~ slicer1-L;
#X obj 228 295 throw~ slicer1-R;
#X obj 310 326 throw~ slicer2-L;
#X obj 437 338 throw~ slicer2-R;
#X obj 516 317 throw~ slicer3-L;
#X obj 625 343 throw~ slicer3-R;
#X obj 722 301 throw~ slicer4-L;
#X obj 913 299 throw~ slicer4-R;
#X connect 0 0 8 0;
#X connect 0 1 9 0;
#X connect 1 0 10 0;
#X connect 1 1 11 0;
#X connect 2 0 14 0;
#X connect 2 1 15 0;
#X connect 3 0 12 0;
#X connect 3 1 13 0;
#X connect 4 0 0 0;
#X connect 5 0 1 0;
#X connect 6 0 3 0;
#X connect 7 0 2 0;
#X coords 0 -1 1 1 830 180 1 100 100;
#X restore -971 -115 pd slicer;
#N canvas 65 107 450 300 delset 0;
#X obj 103 119 nbx 5 14 0 100 0 0 empty empty empty 0 -8 0 10 -262144
-1 -1 0 256;
#X obj 170 119 nbx 5 14 -1e+37 1e+37 0 0 empty empty empty 0 -8 0 10
-262144 -1 -1 0 256;
#X obj 103 163 / 100;
#X obj 103 185 s fb;
#X obj 169 165 s del-time;
#N canvas 707 371 375 310 globalticks 0;
#X obj 78 221 s globalticks;
#N canvas 178 184 345 423 generate-ticks 0;
#X obj 32 98 tgl 15 1 empty empty empty 17 7 0 10 -262144 -1 -1 1 1
;
#X obj 32 146 metro;
#N canvas 982 160 208 259 milliseconds 0;
#X obj 19 18 inlet;
#X obj 19 199 outlet;
#X obj 19 46 t b f;
#X obj 19 170 /;
#X msg 69 77 15000;
#X msg 113 77 20000;
#X obj 19 147 f 15000;
#X obj 69 103 t b f;
#X obj 69 43 sel 0 1;
#X text 19 225 1/16 or 1/12 note;
#X obj 69 17 r \$0-timesignature;
#X floatatom 96 135 5 0 0 0 - - -;
#X connect 0 0 2 0;
#X connect 2 0 6 0;
#X connect 2 1 3 1;
#X connect 3 0 1 0;
#X connect 4 0 7 0;
#X connect 5 0 7 0;
#X connect 6 0 3 0;
#X connect 7 0 6 0;
#X connect 7 1 11 0;
#X connect 7 1 6 1;
#X connect 8 0 4 0;
#X connect 8 1 5 0;
#X connect 10 0 8 0;
#X restore 59 97 pd milliseconds;
#X floatatom 76 121 8 0 0 0 - - -;
#X obj 32 193 +;
#X obj 73 146 s ticklength;
#X obj 32 376 outlet;
#X obj 32 170 f 1;
#N canvas 298 510 316 238 ticksort 0;
#X obj 27 60 t f f;
#X obj 27 27 inlet;
#X obj 27 117 pack;
#X text 25 6 ticks;
#X obj 27 88 & 3;
#X obj 27 143 route 0 1 2 3;
#X obj 27 175 outlet;
#X obj 73 175 outlet;
#X obj 122 175 outlet;
#X obj 170 175 outlet;
#X obj 242 175 outlet;
#X text 28 199 first;
#X text 72 199 second;
#X text 121 199 third;
#X text 168 199 fourth;
#X text 240 198 index;
#X connect 0 0 4 0;
#X connect 0 1 2 1;
#X connect 1 0 0 0;
#X connect 2 0 5 0;
#X connect 4 0 2 0;
#X connect 4 0 10 0;
#X connect 5 0 6 0;
#X connect 5 1 7 0;
#X connect 5 2 8 0;
#X connect 5 3 9 0;
#X restore 32 319 pd ticksort;
#N canvas 573 498 515 163 tickdelays 0;
#X obj 21 15 inlet;
#X obj 21 88 pipe;
#X obj 202 125 outlet;
#X obj 106 14 inlet;
#X obj 106 87 pipe;
#X obj 202 15 inlet;
#X obj 202 88 pipe;
#X obj 287 15 inlet;
#X obj 287 88 pipe;
#N canvas 698 484 303 226 sambagroove 0;
#X obj 32 7 r ticklength;
#X obj 181 28 sel 1;
#X msg 181 56 0;
#X obj 32 30 t b f;
#X obj 19 69 *;
#X obj 19 98 spigot;
#X obj 141 28 t b f;
#X obj 19 -17 r \$0-groove;
#X obj 141 -18 r \$0-groovetype;
#X obj 19 164 s \$0-tickdelay0;
#X obj 35 131 s \$0-tickdelay1;
#X obj 181 125 s \$0-tickdelay2;
#X obj 195 94 s \$0-tickdelay3;
#X connect 0 0 3 0;
#X connect 1 0 2 0;
#X connect 2 0 11 0;
#X connect 2 0 12 0;
#X connect 3 0 4 0;
#X connect 3 1 4 1;
#X connect 4 0 5 0;
#X connect 5 0 9 0;
#X connect 5 0 10 0;
#X connect 6 0 4 0;
#X connect 6 1 5 1;
#X connect 7 0 4 0;
#X connect 8 0 1 0;
#X connect 8 0 6 0;
#X restore 385 93 pd sambagroove;
#N canvas 823 242 346 186 tripletgroove 0;
#X obj 37 15 r ticklength;
#X msg 213 65 0;
#X obj 37 38 t b f;
#X obj 24 77 *;
#X obj 24 106 spigot;
#X obj 146 36 t b f;
#X obj 213 36 sel 0;
#X obj 173 65 == 0;
#X obj 24 -10 r \$0-groove;
#X obj 146 -10 r \$0-groovetype;
#X obj 24 153 s \$0-tickdelay1;
#X obj 44 131 s \$0-tickdelay3;
#X obj 213 134 s \$0-tickdelay0;
#X obj 225 101 s \$0-tickdelay2;
#X connect 0 0 2 0;
#X connect 1 0 12 0;
#X connect 1 0 13 0;
#X connect 2 0 3 0;
#X connect 2 1 3 1;
#X connect 3 0 4 0;
#X connect 4 0 10 0;
#X connect 4 0 11 0;
#X connect 5 0 3 0;
#X connect 5 1 7 0;
#X connect 6 0 1 0;
#X connect 7 0 4 1;
#X connect 8 0 3 0;
#X connect 9 0 5 0;
#X connect 9 0 6 0;
#X restore 386 21 pd tripletgroove;
#X floatatom 56 89 5 0 0 0 - - -;
#X floatatom 141 89 5 0 0 0 - - -;
#X floatatom 234 88 5 0 0 0 - - -;
#X floatatom 320 89 5 0 0 0 - - -;
#X obj 42 39 r \$0-tickdelay0;
#X obj 127 61 r \$0-tickdelay1;
#X obj 223 38 r \$0-tickdelay2;
#X obj 308 61 r \$0-tickdelay3;
#X connect 0 0 1 0;
#X connect 1 0 2 0;
#X connect 3 0 4 0;
#X connect 4 0 2 0;
#X connect 5 0 6 0;
#X connect 6 0 2 0;
#X connect 7 0 8 0;
#X connect 8 0 2 0;
#X connect 15 0 1 1;
#X connect 15 0 11 0;
#X connect 16 0 4 1;
#X connect 16 0 12 0;
#X connect 17 0 6 1;
#X connect 17 0 13 0;
#X connect 18 0 8 1;
#X connect 18 0 14 0;
#X restore 32 350 pd tickdelays;
#X obj 64 193 r \$0-set-one;
#X text 119 349 << groove;
#X obj 32 290 tabread \$0-commontime;
#X obj 185 225 symbol \$0-sixquavers;
#X msg 166 250 set \$1;
#X obj 166 202 symbol \$0-commontime;
#X obj 166 146 r \$0-timesignature;
#X obj 32 248 mod 192;
#X obj 59 15 inlet;
#X obj 166 175 sel 0 1;
#X text 68 41 if zero \, set metro off;
#X text 99 16 BPM;
#X obj 32 67 change;
#X obj 32 42 != 0;
#X msg 64 218 0;
#X floatatom 50 219 5 0 0 0 - - -;
#X floatatom 88 220 5 0 0 0 - - -;
#X connect 0 0 1 0;
#X connect 1 0 7 0;
#X connect 2 0 1 1;
#X connect 2 0 3 0;
#X connect 2 0 5 0;
#X connect 4 0 17 0;
#X connect 4 0 25 0;
#X connect 7 0 4 0;
#X connect 8 0 9 0;
#X connect 8 1 9 1;
#X connect 8 2 9 2;
#X connect 8 3 9 3;
#X connect 9 0 6 0;
#X connect 10 0 24 0;
#X connect 12 0 8 0;
#X connect 12 0 26 0;
#X connect 13 0 14 0;
#X connect 14 0 12 0;
#X connect 15 0 14 0;
#X connect 16 0 19 0;
#X connect 17 0 4 1;
#X connect 17 0 12 0;
#X connect 18 0 2 0;
#X connect 18 0 23 0;
#X connect 19 0 15 0;
#X connect 19 1 13 0;
#X connect 19 2 15 0;
#X connect 22 0 0 0;
#X connect 23 0 22 0;
#X connect 24 0 17 0;
#X restore 78 152 pd generate-ticks;
#N canvas 539 155 297 177 tick-tables 0;
#X obj 31 18 loadbang;
#N canvas 65 110 246 266 commontime 0;
#X obj 30 209 table \$0-commontime 256;
#X obj 31 175 tabwrite \$0-commontime;
#X obj 31 142 t f f;
#X obj 31 86 bng 15 250 50 0 empty empty empty 17 7 0 10 -262144 -1
-1;
#X obj 31 53 inlet;
#X obj 31 114 iterate 256;
#X connect 2 0 1 0;
#X connect 2 1 1 1;
#X connect 3 0 5 0;
#X connect 4 0 3 0;
#X connect 5 0 2 0;
#X restore 31 100 pd commontime;
#N canvas 748 33 413 471 sixquavers 0;
#X obj 27 38 inlet;
#X obj 27 66 bng 15 250 50 0 empty empty empty 17 7 0 10 -262144 -1
-1;
#X obj 27 272 tabwrite \$0-sixquavers;
#X obj 27 122 t b f;
#X obj 156 246 +;
#X obj 27 191 unpack;
#X obj 224 243 s \$0-sixquavers;
#X msg 224 215 arrayviewlistnew;
#X obj 171 221 * 12;
#X obj 27 245 +;
#X obj 42 220 * 16;
#X obj 224 272 table \$0-sixquavers 192;
#X msg 27 151 0 0 \, 1 1 \, 2 2 \, 4 3 \, 5 4 \, 6 5 \, 8 6 \, 9 7
\, 10 8 \, 12 9 \, 13 10 \, 14 11;
#X obj 27 364 hradio 15 1 0 3 empty empty empty 0 -8 0 10 -262144 -262144
-1 0;
#X obj 77 364 hradio 15 1 0 3 empty empty empty 0 -8 0 10 -262144 -262144
-1 0;
#X obj 126 364 hradio 15 1 0 3 empty empty empty 0 -8 0 10 -262144
-262144 -1 0;
#X obj 176 364 hradio 15 1 0 3 empty empty empty 0 -8 0 10 -262144
-262144 -1 0;
#X obj 28 391 hradio 15 1 0 1 empty empty empty 0 -8 0 10 -262144 -262144
-1 0;
#X obj 58 391 hradio 15 1 0 1 empty empty empty 0 -8 0 10 -262144 -262144
-1 0;
#X obj 77 391 hradio 15 1 0 1 empty empty empty 0 -8 0 10 -262144 -262144
-1 0;
#X obj 107 391 hradio 15 1 0 1 empty empty empty 0 -8 0 10 -262144
-262144 -1 0;
#X obj 127 391 hradio 15 1 0 1 empty empty empty 0 -8 0 10 -262144
-262144 -1 0;
#X obj 157 391 hradio 15 1 0 1 empty empty empty 0 -8 0 10 -262144
-262144 -1 0;
#X obj 176 391 hradio 15 1 0 1 empty empty empty 0 -8 0 10 -262144
-262144 -1 0;
#X obj 206 391 hradio 15 1 0 1 empty empty empty 0 -8 0 10 -262144
-262144 -1 0;
#X obj 28 417 hradio 15 1 0 1 empty empty empty 0 -8 0 10 -262144 -262144
-1 0;
#X obj 78 417 hradio 15 1 0 1 empty empty empty 0 -8 0 10 -262144 -262144
-1 0;
#X obj 127 416 hradio 15 1 0 1 empty empty empty 0 -8 0 10 -262144
-262144 -1 0;
#X obj 177 416 hradio 15 1 0 1 empty empty empty 0 -8 0 10 -262144
-262144 -1 0;
#X text 26 334 it is 12/16 really:;
#X text 245 361 semiquavers;
#X text 246 388 quavers;
#X text 247 415 beats;
#X obj 27 91 iterate 16;
#X connect 0 0 1 0;
#X connect 1 0 33 0;
#X connect 3 0 12 0;
#X connect 3 1 8 0;
#X connect 3 1 10 0;
#X connect 4 0 2 1;
#X connect 5 0 9 0;
#X connect 5 1 4 0;
#X connect 7 0 6 0;
#X connect 8 0 4 1;
#X connect 9 0 2 0;
#X connect 10 0 9 1;
#X connect 12 0 5 0;
#X connect 33 0 3 0;
#X restore 122 100 pd sixquavers;
#X connect 0 0 1 0;
#X connect 0 0 2 0;
#X restore 263 24 pd tick-tables;
#X obj 45 57 unpack;
#N canvas 0 22 302 213 label 0;
#X obj 37 34 inlet;
#X obj 37 140 s BPM/grooveguireceive;
#X obj 37 65 makefilename %d;
#X msg 37 105 label \$1;
#X text 35 164 xy-object label;
#X connect 0 0 2 0;
#X connect 2 0 3 0;
#X connect 3 0 1 0;
#X restore 89 121 pd label;
#N canvas 65 97 320 210 BPM 0;
#X obj 36 27 inlet;
#X obj 36 152 outlet;
#X obj 36 88 moses 10;
#X msg 36 115 0;
#X text 77 56 max BPM: 235;
#X text 99 88 if lower than 10 \, set to zero;
#X obj 81 119 s beatsperminute;
#X connect 0 0 2 0;
#X connect 2 0 3 0;
#X connect 2 1 1 0;
#X connect 2 1 6 0;
#X connect 3 0 1 0;
#X restore 78 90 pd BPM;
#X obj 45 271 s \$0-groove;
#X text 126 25 from xy field;
#X obj 45 246 * 0.25;
#X floatatom 222 224 5 0 0 0 - - -;
#X obj 45 25 r groove/BPM;
#X connect 1 0 0 0;
#X connect 1 0 9 0;
#X connect 3 0 8 0;
#X connect 3 1 5 0;
#X connect 5 0 1 0;
#X connect 5 0 4 0;
#X connect 8 0 6 0;
#X connect 10 0 3 0;
#X restore 145 229 pd globalticks;
#X floatatom 336 143 5 0 0 0 - - -;
#X obj 336 236 pack;
#X obj 373 205 t b f;
#X floatatom 232 117 5 0 0 0 - - -;
#X obj 336 259 s groove/BPM;
#X msg 373 162 120;
#X obj 373 141 loadbang;
#X text 103 97 Feedback;
#X text 167 97 DelayTime;
#X text 230 97 BPM;
#X obj 25 31 adc~ 1 2 3;
#X obj 26 214 s~ \$0-sliceJockey;
#X obj 82 73 *~;
#X obj 97 45 r cello-On;
#X connect 0 0 2 0;
#X connect 1 0 4 0;
#X connect 2 0 3 0;
#X connect 6 0 7 0;
#X connect 7 0 10 0;
#X connect 8 0 7 0;
#X connect 8 1 7 1;
#X connect 9 0 8 0;
#X connect 11 0 9 0;
#X connect 12 0 11 0;
#X connect 16 0 17 0;
#X connect 16 1 17 0;
#X connect 16 2 18 0;
#X connect 18 0 17 0;
#X connect 19 0 18 1;
#X coords 0 -1 1 1 170 35 1 100 100;
#X restore -311 -156 pd delset;
#X obj -968 -151 tgl 30 0 cello-On empty Cello-In 0 -7 0 10 -4034 -1
-1 0 1;
